<?xml version="1.0" encoding="UTF-8"?>
<svg version="1.1" xmlns="http://www.w3.org/2000/svg" width="100" height="100">
<path d="M0 0 C0.76828125 -0.01546875 1.5365625 -0.0309375 2.328125 -0.046875 C8.00857822 -0.00823246 11.43770046 1.05591113 16 4.5 C20.30681112 10.0641221 20.52202158 14.55849265 20.25 21.4375 C20.23195312 22.31212891 20.21390625 23.18675781 20.1953125 24.08789062 C20.14858353 26.22574108 20.07685441 28.36302045 20 30.5 C21.13888672 30.43039063 21.13888672 30.43039063 22.30078125 30.359375 C23.29464844 30.32328125 24.28851563 30.2871875 25.3125 30.25 C26.29863281 30.20359375 27.28476563 30.1571875 28.30078125 30.109375 C31 30.5 31 30.5 32.64379883 31.93457031 C34.71294942 35.84863591 34.42835903 39.57441457 34.3984375 43.9375 C34.40130768 44.8545874 34.40417786 45.7716748 34.40713501 46.71655273 C34.40917411 48.65316384 34.40365501 50.58979562 34.39111328 52.52636719 C34.37505743 55.4894011 34.39096717 58.45107098 34.41015625 61.4140625 C34.40817379 63.29687801 34.40433006 65.17969267 34.3984375 67.0625 C34.40451019 67.94800537 34.41058289 68.83351074 34.4168396 69.74584961 C34.40265488 70.98733765 34.40265488 70.98733765 34.38818359 72.25390625 C34.38579681 72.97908447 34.38341003 73.7042627 34.38095093 74.45141602 C33.8623342 77.24030521 33.05428639 78.53766218 31 80.5 C28.30566406 81.00793457 28.30566406 81.00793457 25.015625 81.01757812 C23.16855957 81.03649109 23.16855957 81.03649109 21.28417969 81.05578613 C19.93944731 81.04862651 18.59472015 81.04042257 17.25 81.03125 C15.87141648 81.03394463 14.49283482 81.0378268 13.11425781 81.04284668 C10.22572729 81.0487433 7.33769171 81.04017447 4.44921875 81.02148438 C0.74652717 80.99869357 -2.95500478 81.01181594 -6.65765381 81.03577423 C-9.5041579 81.05022848 -12.35038704 81.0456282 -15.19689941 81.03526306 C-16.5620538 81.03259468 -17.92723316 81.03586952 -19.2923584 81.04518127 C-21.20010908 81.05533852 -23.10794728 81.03711173 -25.015625 81.01757812 C-26.10133789 81.01439575 -27.18705078 81.01121338 -28.30566406 81.00793457 C-31 80.5 -31 80.5 -32.84976196 78.73303223 C-34.08450759 76.33593991 -34.37937636 74.92981752 -34.38818359 72.25390625 C-34.39764008 71.42624756 -34.40709656 70.59858887 -34.4168396 69.74584961 C-34.41076691 68.86034424 -34.40469421 67.97483887 -34.3984375 67.0625 C-34.40130768 66.1454126 -34.40417786 65.2283252 -34.40713501 64.28344727 C-34.40917411 62.34683616 -34.40365501 60.41020438 -34.39111328 58.47363281 C-34.37505743 55.5105989 -34.39096717 52.54892902 -34.41015625 49.5859375 C-34.40817379 47.70312199 -34.40433006 45.82030733 -34.3984375 43.9375 C-34.40451019 43.05199463 -34.41058289 42.16648926 -34.4168396 41.25415039 C-34.34717294 35.15672246 -34.34717294 35.15672246 -32.64379883 31.93457031 C-30.23379243 29.83131803 -28.44945001 30.10237882 -25.3125 30.25 C-24.31863281 30.28609375 -23.32476562 30.3221875 -22.30078125 30.359375 C-21.16189453 30.42898437 -21.16189453 30.42898437 -20 30.5 C-20.04640625 29.20964844 -20.0928125 27.91929688 -20.140625 26.58984375 C-20.17816434 24.87241912 -20.21456217 23.15496928 -20.25 21.4375 C-20.28351562 20.58994141 -20.31703125 19.74238281 -20.3515625 18.86914062 C-20.44462852 12.84311592 -19.7277791 9.31605009 -16 4.5 C-10.70580941 0.50340514 -6.52292241 -0.13133401 0 0 Z M-10 10.5 C-13.17129702 14.66711493 -13.37459098 18.25993977 -13.1875 23.3125 C-13.125625 25.684375 -13.06375 28.05625 -13 30.5 C-4.42 30.5 4.16 30.5 13 30.5 C13.061875 28.128125 13.12375 25.75625 13.1875 23.3125 C13.21481201 22.57491455 13.24212402 21.8373291 13.27026367 21.07739258 C13.32581723 16.65401537 12.67518161 14.01521448 10 10.5 C6.12011628 7.09040522 2.32658844 7.04548806 -2.62890625 7.21484375 C-5.79072014 7.59509484 -7.60601524 8.39619521 -10 10.5 Z M-4.3125 46.125 C-6.33674979 48.44907353 -6.33674979 48.44907353 -5.8125 51.6875 C-5.27959359 54.38143219 -5.27959359 54.38143219 -4 55.5 C-3.76636119 57.34891946 -3.58696365 59.20488031 -3.4375 61.0625 C-3.35371094 62.07441406 -3.26992188 63.08632812 -3.18359375 64.12890625 C-3.09271484 65.30259766 -3.09271484 65.30259766 -3 66.5 C-1.02 66.5 0.96 66.5 3 66.5 C3.04898438 65.74074219 3.09796875 64.98148438 3.1484375 64.19921875 C3.22320312 63.20535156 3.29796875 62.21148437 3.375 61.1875 C3.44460937 60.20136719 3.51421875 59.21523437 3.5859375 58.19921875 C4 55.5 4 55.5 6 52.5 C5.91778291 49.42334973 5.91778291 49.42334973 5 46.5 C1.35509793 44.07006529 -0.61577189 43.52729917 -4.3125 46.125 Z " fill="#FFFFFF" transform="translate(50,9.5)"/>
</svg>
